<?xml version="1.0" standalone="no"?>
<!DOCTYPE svg PUBLIC "-//W3C//DTD SVG 20010904//EN"
 "http://www.w3.org/TR/2001/REC-SVG-20010904/DTD/svg10.dtd">
<svg version="1.0" xmlns="http://www.w3.org/2000/svg"
 width="550.000000pt" height="95.000000pt" viewBox="0 0 550.000000 95.000000"
 preserveAspectRatio="xMidYMid meet">

<g transform="translate(0.000000,95.000000) scale(0.100000,-0.100000)"
fill="#000000" stroke="none">
<path d="M381 939 c-183 -36 -339 -200 -371 -390 -42 -251 133 -494 389 -539
177 -32 371 55 471 210 94 147 94 363 0 510 -103 161 -302 246 -489 209z m129
-173 c0 -79 3 -106 15 -116 25 -21 45 -4 45 38 0 50 22 81 47 66 15 -9 19 -29
23 -125 5 -106 6 -114 25 -114 17 0 21 8 25 60 5 56 7 60 30 60 l25 0 0 -160
0 -160 -25 0 c-23 0 -25 4 -30 60 -4 52 -8 60 -25 60 -19 0 -20 -8 -23 -109
-3 -128 -18 -159 -56 -120 -9 9 -16 32 -16 55 0 43 -20 60 -45 39 -12 -10 -15
-37 -15 -116 0 -90 -2 -105 -18 -113 -14 -7 -25 -6 -40 5 -20 14 -22 24 -22
120 0 84 -3 106 -15 110 -26 10 -45 -16 -45 -61 0 -30 -5 -45 -16 -49 -34 -13
-43 12 -46 127 -3 104 -4 112 -23 112 -16 0 -21 -8 -23 -40 -4 -72 -11 -87
-35 -83 -22 3 -22 5 -22 163 0 158 0 160 22 163 24 4 31 -11 35 -83 2 -32 7
-40 23 -40 19 0 20 8 23 112 3 115 12 140 46 127 11 -4 16 -19 16 -49 0 -45
19 -71 45 -61 12 4 15 26 15 110 0 96 2 106 22 120 15 11 26 12 40 5 16 -8 18
-23 18 -113z m-365 -291 c0 -53 -2 -60 -20 -60 -17 0 -20 8 -23 49 -4 60 3 79
25 74 15 -3 18 -14 18 -63z m700 0 c0 -53 -2 -60 -20 -60 -17 0 -20 8 -23 49
-4 60 3 79 25 74 15 -3 18 -14 18 -63z"/>
<path d="M444 496 c-12 -31 0 -51 31 -51 27 0 30 3 30 30 0 25 -4 30 -28 33
-17 2 -29 -2 -33 -12z"/>
</g>
</svg>
